#!OML:ASF E:\Steps\Project 1\Capture day 1\Session 2\Subject.ASF
:FULLY-SPECIFIED
:DEGREES
350
root 11.7262 17.1652 17.3581 -152.855 0.195088 179.034
lowerback -25.6103 -2.52496 -6.74087
upperback 1.61458 -1.47694 0.18405
thorax 15.8179 -1.29984 3.34351
lowerneck -0.871973 -2.94077 -0.865825
upperneck 23.9541 -2.68385 4.18232
head 7.5542 -0.193554 1.45309
rclavicle -4.17448e-015 3.97569e-015
rhumerus -40.3981 -13.7556 -75.374
rradius 45.3991
rwrist -6.66207
rhand -7.79039 -51.9845
rfingers 7.12502
rthumb 18.1105 -81.1613
lclavicle -4.17448e-015 3.97569e-015
lhumerus -30.5591 3.74759 80.256
lradius 27.7612
lwrist -2.19129
lhand -21.4765 -11.3424
lfingers 7.12502
lthumb 4.91426 18.5806
rfemur -25.8356 7.33061 17.6018
rtibia 7.50345
rfoot -16.8971 -5.5775
rtoes -25.6563
lfemur -25.2632 -6.63451 -22.4595
ltibia 6.22976
lfoot -4.28861 -6.29181
ltoes -20.9413
351
root 11.7311 17.1674 17.3519 -153.009 0.21488 178.951
lowerback -25.5529 -2.55467 -6.8158
upperback 1.59644 -1.50117 0.197637
thorax 15.772 -1.31607 3.39161
lowerneck -0.802586 -2.94346 -0.969049
upperneck 23.8023 -2.70878 4.24724
head 7.49427 -0.218939 1.48823
rclavicle 6.75868e-015 5.56597e-015
rhumerus -40.5503 -13.4265 -75.5699
rradius 45.602
rwrist -6.76513
rhand -6.44842 -51.2074
rfingers 7.12502
rthumb 19.4012 -80.2596
lclavicle 6.75868e-015 5.56597e-015
lhumerus -30.6797 4.13759 80.1623
lradius 27.5625
lwrist -2.15831
lhand -21.5206 -11.3548
lfingers 7.12502
lthumb 4.87166 18.5692
rfemur -25.5448 7.13969 17.6337
rtibia 7.38145
rfoot -16.9593 -5.53494
rtoes -26.9183
lfemur -25.0546 -6.64177 -22.5603
ltibia 6.21684
lfoot -4.24946 -6.35774
ltoes -18.7357
352
root 11.7362 17.1658 17.3501 -152.917 0.223568 178.912
lowerback -26.0668 -2.57401 -6.74684
upperback 1.74919 -1.49144 0.149646
thorax 16.2095 -1.31705 3.29194
lowerneck -0.813984 -2.8926 -0.967497
upperneck 23.5386 -2.69361 4.32986
head 7.40902 -0.225145 1.51102
rclavicle -3.47873e-015 1.11319e-014
rhumerus -40.2509 -13.2968 -75.9218
rradius 45.524
rwrist -6.82998
rhand -6.38117 -51.0363
rfingers 7.12502
rthumb 19.4659 -80.0819
lclavicle -3.47873e-015 1.11319e-014
lhumerus -30.4007 4.67893 79.9468
lradius 27.3015
lwrist -2.18417
lhand -21.535 -11.2734
lfingers 7.12502
lthumb 4.85774 18.6509
rfemur -25.6072 7.2683 17.5319
rtibia 7.2979
rfoot -16.9432 -5.5773
rtoes -26.6775
lfemur -25.2239 -6.60817 -22.5862
ltibia 6.36613
lfoot -4.36661 -6.41034
ltoes -19.5807
353
root 11.7409 17.1617 17.3471 -152.735 0.349578 178.959
lowerback -26.1933 -2.76631 -6.61067
upperback 1.56054 -1.38227 0.18797
thorax 16.0518 -1.084 3.34629
lowerneck -0.79691 -2.89823 -0.932567
upperneck 23.5926 -2.67521 4.23869
head 7.42178 -0.215352 1.47759
rclavicle 5.96354e-016 1.03368e-014
rhumerus -40.3532 -13.1524 -75.9662
rradius 45.3097
rwrist -6.75201
rhand -6.65955 -50.687
rfingers 7.12502
rthumb 19.1982 -79.7595
lclavicle 5.96354e-016 1.03368e-014
lhumerus -30.5861 4.97859 79.8956
lradius 27.0967
lwrist -2.07843
lhand -21.7249 -10.9978
lfingers 7.12502
lthumb 4.67439 18.9306
rfemur -25.8419 7.4187 17.5128
rtibia 7.3267
rfoot -16.9197 -5.52983
rtoes -26.079
lfemur -25.4529 -6.44563 -22.5465
ltibia 6.45873
lfoot -4.49656 -6.40769
ltoes -21.4247
354
root 11.7448 17.1607 17.3402 -152.731 0.426953 178.961
lowerback -26.2404 -2.69456 -6.58552
upperback 1.49825 -1.28459 0.173767
thorax 15.9897 -1.03221 3.35462
lowerneck -0.916839 -2.90719 -0.838463
upperneck 23.5657 -2.70721 4.23312
head 7.43357 -0.225634 1.45623
rclavicle 1.09332e-015 2.70347e-014
rhumerus -40.2954 -13.2516 -76.0431
rradius 45.0373
rwrist -6.55288
rhand -6.8079 -50.4016
rfingers 7.12502
rthumb 19.0556 -79.4882
lclavicle 1.09332e-015 2.70347e-014
lhumerus -30.6734 4.76729 79.9551
lradius 27.0345
lwrist -1.57426
lhand -21.9429 -10.6494
lfingers 7.12502
lthumb 4.46394 19.2836
rfemur -25.8126 7.37361 17.5371
rtibia 7.30449
rfoot -16.9995 -5.443
rtoes -26.035
lfemur -25.3895 -6.47367 -22.5296
ltibia 6.39449
lfoot -4.54899 -6.30145
ltoes -21.6519
355
root 11.7501 17.1586 17.3316 -152.745 0.457735 178.978
lowerback -26.2836 -2.60839 -6.49043
upperback 1.4474 -1.18667 0.134272
thorax 15.9374 -0.974152 3.29684
lowerneck -1.05498 -2.91065 -0.790699
upperneck 23.5199 -2.75535 4.35134
head 7.44502 -0.237997 1.48204
rclavicle 8.44835e-015 -5.1684e-015
rhumerus -40.2922 -13.309 -76.1862
rradius 44.8243
rwrist -6.49415
rhand -6.87455 -50.4345
rfingers 7.12502
rthumb 18.9915 -79.5274
lclavicle 8.44835e-015 -5.1684e-015
lhumerus -30.7875 4.41953 79.9926
lradius 27.0299
lwrist -1.06468
lhand -22.0057 -10.4466
lfingers 7.12502
lthumb 4.40325 19.4876
rfemur -25.7237 7.35202 17.595
rtibia 7.23993
rfoot -17.0685 -5.41545
rtoes -26.2747
lfemur -25.2929 -6.53118 -22.475
ltibia 6.31257
lfoot -4.55238 -6.20593
ltoes -21.3719
